<svg width="12" height="11" viewBox="0 0 12 11" fill="none" xmlns="http://www.w3.org/2000/svg">
<path fill-rule="evenodd" clip-rule="evenodd" d="M0.47144 4.95143C0.205203 4.98808 0 5.21968 0 5.49992C0 5.80564 0.244208 6.05347 0.545455 6.05347L10.1333 6.05347L6.66984 9.55423L6.6169 9.6162C6.45802 9.83257 6.47499 10.1401 6.66824 10.3371C6.88081 10.5537 7.22617 10.5544 7.43963 10.3387L11.8331 5.89842C11.8547 5.87729 11.8746 5.85437 11.8925 5.8299L11.8927 5.82969C12.0519 5.61265 12.0342 5.30406 11.8396 5.10737L7.4396 0.661287L7.3783 0.607824C7.16443 0.447501 6.86144 0.46603 6.66821 0.662973C6.45565 0.879612 6.4564 1.2301 6.66987 1.4458L10.1342 4.94637L0.545455 4.94637L0.47144 4.95143Z" fill="#232631"/>
</svg>
